<svg width="18" height="18" viewBox="0 0 18 18" fill="none" xmlns="http://www.w3.org/2000/svg">
<path d="M9.5 5C9.5 4.72386 9.27614 4.5 9 4.5C8.72386 4.5 8.5 4.72386 8.5 5L9.5 5ZM8.64645 13.3536C8.84171 13.5488 9.15829 13.5488 9.35355 13.3536L12.5355 10.1716C12.7308 9.97631 12.7308 9.65973 12.5355 9.46447C12.3403 9.2692 12.0237 9.2692 11.8284 9.46447L9 12.2929L6.17157 9.46447C5.97631 9.2692 5.65973 9.2692 5.46447 9.46447C5.2692 9.65973 5.2692 9.97631 5.46447 10.1716L8.64645 13.3536ZM8.5 5L8.5 13L9.5 13L9.5 5L8.5 5Z" fill="#4F4F4F"/>
</svg>
