<?xml version="1.0" encoding="UTF-8"?>
<svg id="Layer_2" data-name="Layer 2" xmlns="http://www.w3.org/2000/svg" version="1.1" viewBox="0 0 220.5 70.6">
  <defs>
    <style>
      .cls-1 {
        fill: #000;
        stroke-width: 0px;
      }
    </style>
  </defs>
  <g id="Layer_1-2" data-name="Layer 1-2">
    <path class="cls-1" d="M68.7,44c.7-2.6,1-5.4,1-8.2,1-.5,1.5-1.6,1.3-2.7-.2-.8-.8-1.4-1.5-1.6-.4-2.9-1.1-5.8-2.2-8.4.4-.5.6-1.3.2-1.9-.3-.6-.9-1-1.6-1-1.6-3.1-3.7-5.9-6.2-8.3.3-.7.3-1.6,0-2.4-.7-1.5-2.5-2.1-3.9-1.4,0,0-.2.1-.3.2-1.5-1-3-1.9-4.6-2.7,0-.4,0-.9,0-1.3-.4-.9-1.5-1.3-2.4-.8-.4.2-.6.5-.8.8-2.5-.9-5.2-1.5-7.9-1.8,0-.3,0-.5-.2-.8-.7-1.5-2.5-2.1-3.9-1.4-.9.4-1.4,1.2-1.6,2.1-2.8.2-5.5.8-8.2,1.7-.5-.7-1.4-1-2.2-.6-.7.3-1.1,1.1-1,1.9-.5.2-.9.4-1.4.7-2.6,1.3-4.9,3-7,4.8-.3-.2-.7-.3-1.1-.3-1.3,0-2.3,1-2.3,2.3s.1.8.3,1.1c-2.5,2.9-4.4,6.2-5.8,9.8-.4,0-.8,0-1.2.1-.9.4-1.3,1.5-.8,2.4.2.4.5.7.9.9-.5,1.9-.8,3.9-1,5.9-.4,0-.8,0-1.2.3C.6,34.1,0,35.9.7,37.3c.5,1,1.5,1.7,2.6,1.7.5,4.8,1.9,9.2,4.2,13.2-.7.4-1.1,1.1-1.1,2,0,1.3,1,2.3,2.3,2.3s.9-.2,1.3-.4c2.5,3.3,5.6,6.1,9.1,8.3-.2.4-.2.9,0,1.4.4.9,1.5,1.3,2.4.8.3,0,.5-.3.7-.6,1.8.9,3.8,1.6,5.8,2.1h0c0,1.4,1,2.4,2.3,2.4s1.9-.7,2.2-1.6c1.3.2,2.7.3,4.1.3,3.6,0,7-.6,10.3-1.6.7,1.4,2.5,2.1,3.9,1.4s2-2.2,1.5-3.7c1-.6,2-1.2,3-1.8.4.4.9.6,1.5.6,1.3,0,2.3-1,2.3-2.3s0-.7-.3-1c1.4-1.2,2.7-2.6,3.8-4,.5.3,1.1.3,1.7,0,.9-.4,1.3-1.5.8-2.4,0-.2-.2-.4-.4-.5.9-1.4,1.7-2.8,2.3-4.3.7.2,1.3,0,2-.2,1.5-.7,2.1-2.5,1.4-3.9-.3-.7-.8-1.1-1.4-1.4M66.6,23.6s0,0,.2-.1c1,2.5,1.7,5.2,2.1,7.9h-.7c-1.1.3-1.8,1.3-1.7,2.4l-2,.3-1.9-6.3,2.6-3.9.2-.3c.4.1.9.1,1.3-.1M30.2,56c0-.5,0-1-.3-1.5-.7-1.4-2.5-2-4-1.3-.5.3-.9.7-1.2,1.1l-3.5-.2c0,0,0-.3-.1-.4-.2-.4-.6-.7-1-.9v-1.9h0c.9-.4,1.3-1.5.9-2.4s-1.5-1.3-2.4-.8c-.1,0-.3.2-.4.3l-4-3.2c.7-.9.9-2.1.3-3.2-.4-.8-1.1-1.3-2-1.5l2-7c.4,0,.9,0,1.3,0,.9-.4,1.3-1.5.9-2.4-.3-.6-.9-1-1.4-1l-.4-2.6,2.5-1.9c.8,1.3,2.5,1.8,3.9,1.1,1.5-.7,2-2.5,1.3-4-.2-.4-.4-.7-.7-.9l4-3.7,1.5.6c0,.2,0,.5.2.7.4.9,1.5,1.3,2.4.9s1.3-1.5.9-2.4c-.1-.2-.3-.4-.4-.6l1.4-2.9c.4.1.9.2,1.3,0,.7-.2,1.3-.7,1.5-1.3l6.6,4.3c-.3.8-.3,1.6,0,2.4.7,1.4,2.5,2,4,1.3.7-.3,1.1-.9,1.4-1.5l6.1.7,1.2,5.1c-.9.3-1.5,1.2-1.5,2.1s1,2.3,2.3,2.3,1-.2,1.4-.5l3.2,2.5-1.5,2.2c-.4-.2-.9-.2-1.4,0-1.2.3-2,1.6-1.7,2.8.2,1,1.1,1.7,2.1,1.7l1.8,5c-1.3,1.2-2.3,2.1-3,2.8-.8-.4-1.8-.4-2.6,0-1.4.7-2,2.5-1.3,4,.2.5.6.9,1.1,1.2l-.8,2.7c-.4,0-.8,0-1.3,0-.6.3-1,.9-1,1.5l-7.3.5v-.2c-.3-1.2-1.6-2-2.8-1.7s-2,1.6-1.7,2.8v.2l-3.6,1.6-4.5-2.3h0l.2-.2ZM34,58.6l-5.4,2.4-.4-2.3c.1,0,.3,0,.4-.2.8-.4,1.3-1.1,1.5-1.9l3.9,2h0ZM24.6,57.2c0,.2.2.3.3.5l-1.3,2-2.9-3.9c.3-.3.5-.7.5-1.1h3.2c-.3.9-.2,1.7.1,2.5M25.3,58.1c.6.6,1.5.8,2.3.7l.5,2.4-2.6,1.1-1.6-2.1s1.4-2.1,1.3-2.1h.1ZM6.4,25.1l3.6-.5c.3.6,1,1,1.7.9v3.3c-.1,0-5.3-2.8-5.3-2.8v-.8M14.8,29.5c-.1,0-.3,0-.4.1-.2,0-.3.2-.5.3l-1.7-.9,2.3-1.8.3,2.2h0ZM14.5,23.9l2.6-.4c0,.4,0,.7.2,1l-2.4,1.8s-.4-2.5-.3-2.5h-.1ZM13.5,30.4c-.2.3-.2.6-.2,1l-1.4.5v-2.3l1.6.8h0ZM13.4,31.9v.2c.1.3.4.5.6.7l-2,7.2h-.4l.3-7.5,1.5-.6h0ZM5.7,35l5.7-2.2-.3,7.4c-.1,0-.3,0-.5.2-.4.2-.7.5-.9.8l-4.3-3.5c.5-.8.6-1.7.2-2.6M5.4,34.5s0-.2,0-.2l6.2-4.7v2.6c-.1,0-6.1,2.3-6.1,2.3ZM9.4,41.4c-.4.8-.5,1.8,0,2.8.3.5.7,1,1.2,1.2l-.4,1.6-5.4-8.7c0,0,.3-.2.4-.4l4.3,3.5h-.1ZM11.1,45.7c.5.2,1,.2,1.6,0l5.6,7.6c-.2.2-.4.5-.5.8h-3.3c0,0-3.9-6.4-3.9-6.4l.6-2h-.1ZM13.2,45.5h.2c.2,0,.4-.2.6-.4l4,3.2c-.3.5-.4,1.2-.1,1.7.3.7,1,1,1.7,1v1.7c-.2,0-.5,0-.8.2h0l-5.5-7.4h-.1ZM15.1,12.5l5.6-.3c0,.1,0,.2.1.3.2.5.6.8,1,.9l-.4,1.9-6.3-2.4h0v-.4M21.8,16l3.6,1.4-3.9,3.6c-.2-.1-.5-.2-.7-.3l1.1-4.7h-.1ZM25.8,16.9l-3.9-1.5.4-2c.3,0,.6,0,.8-.2.6-.3.9-.8,1-1.4l6.1-.4v.5c0,.2.1.3.2.4l-4.7,4.4h0v.2ZM30.8,13c.1.2.3.3.5.5l-1.4,2.9c-.5-.2-1-.2-1.5,0s-.8.7-1,1.2l-1.1-.4,4.5-4.1h0ZM54.1,11.6l-2.4,1.5-.6-2.5h2.9c0,.2,0,.6,0,1M46.7,16.8l4.6-2.9,1.3,5.2-5.8-.7c0-.5,0-1.1-.2-1.7M51.2,13.4l-4.7,2.9c-.8-1.2-2.3-1.7-3.7-1.1l-1.8-4.1,9.5-.5s.7,2.8.7,2.8ZM42.4,15.4c-.3.2-.6.5-.8.9l-6.7-4.4v-.5l5.6-.3,1.9,4.3ZM34.8,10.9c0-.2,0-.3-.2-.5l4.9-1.6.8,1.7-5.5.3h0ZM64.1,22.6l-2.8,1.3-.6-2c.3-.2.5-.5.6-.8l2.8.5v.9M57.1,26.4l3.9-1.7.9,3.1-2.1,3.1-3.1-2.5c.3-.4.5-.9.5-1.4v-.6M60.1,31.7l3.3,2.6-4.1.5c0-.4-.3-.8-.7-1l1.4-2.1h0ZM60.4,31.2l1.8-2.7,1.6,5.4s-3.4-2.7-3.4-2.7ZM61.5,24.4l3-1.3c0,.2.3.3.4.4l-.2.2-2.4,3.5-.8-2.8h0ZM60.8,24.1l-3.9,1.8c-.3-.6-.8-1-1.4-1.2l.6-4.6,1.8.4c0,.3,0,.5.2.8.4.8,1.4,1.2,2.2.9l.6,2h0ZM54.9,24.6h-.3l-1.2-4.9,2.2.3-.6,4.6h-.1ZM57.6,37.8h.2c0,0,.2,0,.4,0l3.1,3c-.7.7-1.4,1.3-2,1.8l-1.7-4.7h0ZM60.2,46.7l-3.1.2c-.2-.4-.5-.7-.8-.9.8-.7,1.7-1.6,2.8-2.6l1.2,3.3h-.1ZM54.8,53.2l-1.6.9c0-.2-.3-.3-.5-.5l.7-2.7c.3,0,.7.2,1,.2l.3,2h0ZM38.4,57.2l-1.7,2.2-1.5-.8,3.2-1.4ZM38.8,57.6c.6.5,1.3.8,2.1.6,1-.2,1.6-1.1,1.7-2l7.8,3.4-5.8,2.4c-.5-.7-1.5-1-2.3-.6-.3,0-.5.3-.7.6l-4.5-2.3,1.6-2h.1ZM43.7,56l6.3-.4c0,0,0,.3,0,.4.2.5.7.8,1.1,1l-.6,2.2-7-3.1h.1ZM51.8,57c.2,0,.5,0,.7-.2.8-.4,1.2-1.4.9-2.2l1.4-.8.6,3.7-4.3,1.8.6-2.3h0ZM55,51.2c.3,0,.6,0,.9-.3,1.3-.7,1.9-2.2,1.5-3.5l3.1-.2.8,2.4-6,3.4-.3-1.8h0ZM60.9,47.2l3.6-.2c0,.2,0,.4,0,.6l-3,1.7-.8-2.1h.1ZM64.5,46.4l-3.8.2-1.3-3.7c.7-.7,1.4-1.3,2.2-2l3.8,3.6c-.5.5-.8,1.1-.8,1.8M58.5,37.3c.6-.5.9-1.2.9-1.9l4.6-.6.8,2.5c-.3.3-.6.5-.9.8-.8.8-1.6,1.5-2.3,2.2l-3-2.9h-.1ZM64.6,34.7l2-.3c0,.3.3.6.5.8-.5.5-1.1,1-1.8,1.6l-.7-2.2h0ZM58.2,13.4c.5-.2.9-.6,1.2-1.1,2.3,2.3,4.3,5,5.9,7.9h-.2c-.4.2-.7.5-.8.8l-2.8-.5c0-.3,0-.6-.2-.9-.3-.6-.9-1-1.5-1l-1.6-5.2h0M56.9,13.7h.8l1.5,5.1c0,0-.2,0-.3.1-.5.2-.8.6-.9,1.1l-1.8-.4.8-5.9h0ZM56.3,13.6l-.8,5.9-2.4-.3-1.4-5.6,2.5-1.5c.4.8,1.2,1.4,2,1.5M50.5,6.1c1.5.7,3,1.6,4.4,2.6-.4.4-.6.8-.8,1.3l-3.1.2-.9-3.5c.2,0,.3-.3.4-.4M47.7,6.3c.5.5,1.2.7,1.9.5l.8,3.3-9.6.5-.8-1.9,7.7-2.4h0ZM39.5,3c2.7.3,5.2.8,7.7,1.7,0,.4,0,.8,0,1.1l-7.5,2.4-1.3-3c.7-.6,1-1.3,1-2.2M35.7,5.7c.7.2,1.5.2,2.2,0h.2l1.2,2.9-5.1,1.6c0-.1-.3-.2-.4-.3l1.9-3.9h0v-.2ZM25.8,4.5c2.5-.8,5.2-1.4,7.9-1.6,0,.4,0,.9.3,1.3.3.6.7,1,1.2,1.3l-1.9,3.9c-.4-.1-.9-.2-1.3,0-.2,0-.5.2-.7.3l-5.7-3.7c.2-.4.2-.9.1-1.4M24.9,6.7c.2,0,.4-.2.5-.4l5.6,3.6c-.3.3-.5.7-.6,1.1l-6.2.4c0-.2,0-.4-.1-.5-.2-.4-.5-.7-.9-.9l.7-3.2c.3,0,.7,0,1-.2M21.1,6.5c.4-.2.9-.4,1.3-.6h0c.2.4.5.7.9.9l-.7,3.2c-.3,0-.7,0-1,.2-.6.3-1,.9-1,1.6l-5.7.3c-.1-.3-.3-.6-.6-.9,2-1.8,4.3-3.4,6.8-4.7M15,13.4l6.3,2.4-1.1,4.8c-.4,0-.9,0-1.3.2l-4.6-6.3c.3-.3.6-.7.7-1.1M13.8,14.9l4.4,6.3c-.6.4-1,1.1-1.1,1.8l-2.7.4-1.2-8.2c.2,0,.4-.1.6-.2M12.6,15.1h0l1.2,8.3h-.5c0-.1,0-.3-.2-.5-.2-.4-.5-.7-.9-.8l.3-6.9h0ZM12.2,25.4h.1c.5-.3.9-.7,1-1.3h.6c0-.1.4,2.7.4,2.7l-2.3,1.7v-3h.2ZM11.1,14.4c.3.3.6.5,1,.6l-.3,6.9c-.3,0-.7,0-1,.2-.8.4-1.1,1.2-1,2l-3.6.5c-.2-.3-.4-.5-.7-.7,1.3-3.5,3.2-6.7,5.6-9.5M4.4,27.3c.3,0,.7,0,1-.2s.6-.4.8-.7l5,2.7-6.2,4.7c-.4-.4-1-.7-1.5-.7.2-2,.5-3.9,1-5.8M8.3,51.8c-.3,0-.5,0-.7,0-2.2-3.9-3.7-8.3-4.1-13,.3,0,.5,0,.8-.2h0l5.6,9.1-1.2,4.2h-.5M9.3,52l1-3.7,3.5,5.6h-3.2c-.1-.9-.6-1.5-1.3-1.8M19.6,63.3c-.3,0-.5.3-.6.5-3.5-2.1-6.5-4.9-9-8.2.3-.4.6-.8.6-1.4l3.6.2,5.5,8.8h0M20.1,63.1l-5.4-8.7h2.9c0,.4,0,.6.2.9.4.8,1.2,1.2,2,1l.5,6.8h-.2M21.3,63.4c-.1,0-.2,0-.4-.2l-.5-7,2.9,4-2,3.2ZM21.7,63.7l2-3,1.4,1.8-3.2,1.4s-.1,0-.1-.2M27.7,67.6c-2-.5-3.8-1.2-5.6-2.1.1-.4.1-.8,0-1.1l3.2-1.4,2.8,3.8c-.2.2-.4.5-.5.8M28.5,66.4l-2.7-3.7,2.3-1,.8,4.4c-.2,0-.3.2-.5.3M29.9,65.9h-.4l-.9-4.5,5.9-2.6,1.8.9-5.2,6.5c-.4-.2-.8-.3-1.2-.3M32,67.2c-.1-.2-.2-.4-.4-.6l5.3-6.6,4.6,2.4c0,.3,0,.6,0,.9l-9.4,3.9h0ZM46.3,67.1c-3.2,1-6.6,1.6-10.1,1.6s-2.7,0-4-.2v-.7l9.4-3.9c.5.8,1.5,1.2,2.4.8.3,0,.5-.3.7-.6l2,1c-.3.6-.4,1.4-.2,2.1M47.9,63.7c-.5.2-.8.5-1.1.9l-2-1c0-.4,0-.8,0-1.1l5.5-2.3-.9,3.2c-.5,0-1.1,0-1.6.3M51.7,64.8c-.4-.7-1-1.1-1.7-1.3l1-3.6h0l3.1,1.3v.6c0,.5.2,1,.4,1.3-.9.6-1.9,1.2-2.9,1.7M54.4,60.7l-2.6-1.2,3.8-1.6.3,1.6c-.6.2-1.1.6-1.4,1.1M58.2,60.3c-.4-.5-1-.8-1.7-.8h0l-.3-1.7,5.4-2.2c0,0,0,.2,0,.3,0,.2.2.3.3.5-1.1,1.4-2.4,2.7-3.7,3.9M62.4,53.5c-.6.3-1,.9-1,1.5l-5.4,2.2-.6-3.8,6.1-3.4,1.2,3.4h-.2M63.9,53.5c-.2,0-.5-.2-.8-.2l-1.3-3.5,3-1.7c.3.6.8,1,1.3,1.3-.7,1.5-1.4,2.8-2.3,4.2M66.2,44c-.2,0-.3.2-.4.2l-3.8-3.7c.8-.7,1.6-1.5,2.3-2.1.2-.2.5-.4.7-.6l1.8,6c-.2,0-.4,0-.6.2M67.3,43.8l-1.9-6.3c.8-.8,1.5-1.4,2-1.8.5.3,1.1.5,1.7.4,0,2.7-.4,5.3-1,7.9-.3,0-.5,0-.8,0M37.4,45.2c-1.9,0-3.5-.2-5-.8-1.4-.5-2.5-1.2-3.3-2.2s-1.2-2-1.2-3.2h6.1c0,.3.2.6.5.9.3.2.7.4,1.2.6s1.1.2,1.8.2,1.7,0,2.2-.3c.5-.2.8-.5.8-.9s-.2-.5-.4-.7c-.3-.2-.9-.3-1.8-.4l-2.9-.2c-2.6-.2-4.5-.7-5.7-1.7s-1.7-2.2-1.7-3.7.4-2.4,1.1-3.2c.7-.9,1.8-1.5,3.1-2,1.3-.5,2.9-.6,4.7-.6s3.3.2,4.7.7c1.3.5,2.4,1.2,3.2,2s1.2,1.9,1.3,3.1h-6.1c0-.3-.2-.5-.5-.7s-.6-.4-1.1-.5-1-.2-1.7-.2-1.5,0-2,.3c-.5.2-.7.4-.7.8s0,.5.4.7c.3.2.8.3,1.7.4l3.2.2c1.7,0,3.1.4,4.1.8,1,.4,1.8.9,2.3,1.6s.7,1.5.7,2.6-.4,2.4-1.1,3.4c-.8,1-1.8,1.7-3.2,2.2s-3,.8-4.8.8M86.2,40.1l-6.3,13.4h3.2l1.3-2.8h7.4l1.3,2.8h3.2l-6.3-13.4h-3.9.1ZM85.5,48.2l2.6-5.8,2.6,5.8h-5.2ZM107.3,45.7l4.8,7.7h-3.5l-3.3-5.4-4.4,5.4h-2.7v-13.4h3v9.3l7.4-9.3h3.2l-4.6,5.7h0ZM119.6,40.1l-6.3,13.4h3.2l1.3-2.8h7.4l1.3,2.8h3.2l-6.3-13.4h-3.9.1ZM119,48.2l2.6-5.8,2.6,5.8h-5.2ZM142.2,40.9c-1.2-.6-2.5-.8-4.1-.8h-6.4v13.4h6.4c1.6,0,2.9-.3,4.1-.8,1.2-.6,2.1-1.3,2.7-2.3.6-1,1-2.2,1-3.5s-.3-2.5-1-3.5-1.6-1.8-2.7-2.3M142.3,48.9c-.4.6-.9,1.1-1.6,1.4-.7.3-1.5.5-2.4.5h-3.6v-8h3.6c.9,0,1.7.2,2.4.5s1.2.8,1.6,1.4c.4.6.6,1.3.6,2.1s-.2,1.5-.6,2.1M151.2,51h8.8v2.5h-12.1l1-6.7-1-6.7h12v2.5h-8.7l.5,3h7.7v2.3h-7.7l-.5,3h0ZM165.5,51h8.8v2.5h-12.1l1-6.7-1-6.7h12v2.5h-8.7l.5,3h7.7v2.3h-7.7l-.5,3h0ZM191.3,40.1h4.7v13.4h-2.9v-10.7l-4.9,10.7h-3.1l-5-10.7v10.7h-2.9v-13.4h4.7l4.7,10.5,4.7-10.5h0ZM199.2,40.1h3v13.4h-3v-13.4ZM217.3,53.5h3.2l-6.3-13.4h-3.9l-6.3,13.4h3.2l1.3-2.8h7.4l1.3,2.8h.1ZM209.7,48.2l2.6-5.8,2.6,5.8h-5.2ZM89.4,31.1c0-2.6-8-2.4-8-7.1s2.5-4.1,5.5-4.1,4.8.6,4.8,2.9v1.4h-2.5v-.7c0-.9-1.3-1.2-2.2-1.2-1.7,0-2.7.6-2.7,1.7,0,2.8,8,2.2,8,7.1s-2.3,4.3-5.4,4.3-5.9-2.6-5.9-2.6l1.4-1.9s1.7,2.2,4.4,2.2,2.6-.6,2.6-1.9M101.5,35.3c4.4,0,7.9-3.3,7.9-7.7s-3.6-7.7-7.9-7.7-7.9,3.2-7.9,7.7,3.5,7.7,7.9,7.7M101.5,22.3c2.8,0,5.1,2.2,5.1,5.2s-2.3,5.3-5.1,5.3-5-2.2-5-5.3,2.3-5.2,5-5.2M117.6,35.1c-1.9,0-5.6-.6-5.6-5.5v-7.1h-1.9v-2.3h2v-4h2.8v4h3.5v2.3h-3.5v6.8c0,2.9,2,3.3,3.1,3.3s.7,0,.7,0v2.5h-1M131.2,31c0,2.6-2.3,4.3-5.4,4.3s-5.9-2.6-5.9-2.6l1.4-1.9s1.8,2.2,4.4,2.2,2.6-.6,2.6-1.9c0-2.6-8-2.4-8-7.1s2.5-4.1,5.5-4.1,4.8.6,4.8,2.9v1.4h-2.5v-.7c0-.9-1.3-1.2-2.2-1.2-1.7,0-2.7.6-2.7,1.7,0,2.8,8,2.2,8,7.1M136.6,17.4h-2.5v-2.9h2.5v2.9ZM133.4,22.6h-1.2v-2.4h2.8c1.3,0,1.9.5,1.9,1.9v9.8c0,.4.2.6.6.6h1.2v2.4h-2.8c-1.3,0-1.9-.5-1.9-1.9v-9.8c0-.4-.2-.6-.6-.6M144.9,35.3c3.5,0,4.7-2.9,4.7-2.9h0v.9c0,1,.5,1.7,1.8,1.7h2.6v-2.4h-1.2c-.4,0-.6-.2-.6-.6v-6.2c0-3.3-1.3-5.8-6.1-5.8s-5.1.4-5.1,2.8v1.5h2.6v-.8c0-1,1.7-1.1,2.4-1.1,2.3,0,3.3.9,3.3,3.5h0c0,.1-.6.1-.6.1-2.5,0-8.9.3-8.9,5s2.5,4.5,5,4.5M148.7,27.9h.7v.5c0,2.2-1.5,4.7-3.9,4.7s-2.8-1.2-2.8-2.4c0-2.7,3.8-2.8,6-2.8M164.8,32.4h0v.9c0,1,.5,1.7,1.8,1.7h2.6v-2.4h-1.2c-.4,0-.6-.2-.6-.6v-6.2c0-3.3-1.3-5.8-6.1-5.8s-5.1.4-5.1,2.8v1.5h2.6v-.8c0-1,1.7-1.1,2.4-1.1,2.3,0,3.3.9,3.3,3.5h0c0,.1-.6.1-.6.1-2.5,0-8.9.3-8.9,5s2.5,4.5,5,4.5,4.7-2.9,4.7-2.9M160.8,33c-1.9,0-2.8-1.2-2.8-2.4,0-2.7,3.8-2.8,6-2.8h.7v.5c0,2.2-1.5,4.7-3.9,4.7M174.8,32.5h1.2v2.4h-2.8c-1.3,0-1.9-.5-1.9-1.9v-15.6c0-.4-.2-.6-.6-.6h-1.2v-2.4h2.8c1.3,0,1.9.6,1.9,1.9v15.6c0,.4.2.6.6.6M178.2,22.5h-1.9v-2.3h2v-4h2.8v4h3.5v2.3h-3.5v6.8c0,2.9,2,3.3,3.1,3.3s.7,0,.7,0v2.5h-1c-1.9,0-5.6-.6-5.6-5.5v-7.1h-.1ZM196.9,17.4h-2.1v-2.9h2.1v2.9ZM192.1,17.4h-2.1v-2.9h2.1v2.9ZM193.4,19.9c-4.4,0-7.9,3.2-7.9,7.7s3.5,7.7,7.9,7.7,7.9-3.3,7.9-7.7-3.6-7.7-7.9-7.7M193.4,32.9c-2.8,0-5-2.2-5-5.3s2.3-5.2,5-5.2,5.1,2.2,5.1,5.2-2.3,5.3-5.1,5.3M210.7,35.3c4.4,0,7.9-3.3,7.9-7.7s-3.6-7.7-7.9-7.7-7.9,3.2-7.9,7.7,3.5,7.7,7.9,7.7M210.7,22.3c2.8,0,5.1,2.2,5.1,5.2s-2.3,5.3-5.1,5.3-5-2.2-5-5.3,2.3-5.2,5-5.2M214.2,17.4h-2.1v-2.9h2.1v2.9ZM209.4,17.4h-2.1v-2.9h2.1v2.9Z"/>
  </g>
</svg>