<svg xmlns="http://www.w3.org/2000/svg" fill="none" viewBox="0 0 500 500" height="500" width="500">
<rect fill="#140F1C" rx="100" height="500" width="500"></rect>
<path fill="white" d="M436.729 299.626C440.693 284.873 442.392 268.984 442.392 253.095C448.055 250.258 450.886 244.016 449.754 237.774C448.621 233.235 445.224 229.83 441.259 228.695C438.994 212.239 435.03 195.783 428.801 181.03C431.066 178.192 432.199 173.653 429.934 170.248C428.235 166.843 424.837 164.574 420.873 164.574C411.812 146.983 399.92 131.094 385.762 117.475C387.461 113.503 387.461 108.396 385.762 103.857C381.798 95.3449 371.605 91.9402 363.677 95.9124C363.677 95.9124 362.544 96.4798 361.978 97.0473C353.484 91.3728 344.989 86.2658 335.928 81.7262C335.928 79.4564 335.928 76.6191 335.928 74.3494C333.663 69.2423 327.434 66.9725 322.337 69.8098C320.072 70.9447 318.94 72.647 317.807 74.3494C303.65 69.2423 288.36 65.8376 273.07 64.1353C273.07 62.4329 273.07 61.2981 271.937 59.5957C267.973 51.084 257.78 47.6793 249.852 51.6514C244.755 53.9212 241.923 58.4608 240.791 63.5678C224.935 64.7027 209.645 68.1074 194.355 73.2145C191.523 69.2423 186.426 67.54 181.896 69.8098C177.932 71.5121 175.667 76.0517 176.233 80.5913C173.402 81.7262 171.136 82.8611 168.305 84.5634C153.581 91.9402 140.556 101.587 128.664 111.801C126.965 110.666 124.7 110.099 122.435 110.099C115.073 110.099 109.41 115.773 109.41 123.15C109.41 130.527 109.977 127.689 111.109 129.392C96.9517 145.848 86.1921 164.574 78.264 185.002C75.9988 185.002 73.7336 185.002 71.4684 185.569C66.3718 187.839 64.1066 194.081 66.9381 199.188C68.0707 201.458 69.7695 203.16 72.0347 204.295C69.2032 215.076 67.5044 226.425 66.3718 237.774C64.1066 237.774 61.8414 237.774 59.5762 239.477C51.0818 243.449 47.684 253.663 51.6481 261.607C54.4796 267.282 60.1425 271.254 66.3718 271.254C69.2032 298.491 77.1314 323.459 90.1562 346.157C86.1921 348.427 83.9269 352.399 83.9269 357.506C83.9269 364.883 89.5899 370.557 96.9517 370.557C104.314 370.557 102.048 369.422 104.314 368.287C118.471 387.013 136.026 402.902 155.846 415.386C154.714 417.655 154.714 420.493 155.846 423.33C158.112 428.437 164.341 430.707 169.438 427.87C171.136 427.87 172.269 426.167 173.402 424.465C183.595 429.572 194.921 433.544 206.247 436.381C206.247 444.325 211.91 450 219.272 450C226.633 450 230.031 446.028 231.73 440.921C239.092 442.056 247.02 442.623 254.948 442.623C275.335 442.623 294.589 439.218 313.277 433.544C317.241 441.488 327.434 445.46 335.362 441.488C343.29 437.516 346.688 429.004 343.857 420.493C349.52 417.088 355.183 413.683 360.845 410.279C363.111 412.548 365.942 413.683 369.34 413.683C376.702 413.683 382.365 408.009 382.365 400.632C382.365 393.255 382.365 396.66 380.666 394.958C388.594 388.148 395.956 380.204 402.185 372.26C405.017 373.962 408.414 373.962 411.812 372.26C416.909 369.99 419.174 363.748 416.342 358.641C416.342 357.506 415.21 356.371 414.077 355.804C419.174 347.859 423.704 339.915 427.102 331.403C431.066 332.538 434.464 331.403 438.428 330.268C446.922 326.296 450.32 316.082 446.356 308.138C444.657 304.166 441.826 301.896 438.428 300.194M424.837 183.867C424.837 183.867 424.837 183.867 425.969 183.299C431.632 197.486 435.596 212.807 437.862 228.128H433.898C427.668 229.83 423.704 235.505 424.271 241.747L412.945 243.449L402.185 207.7L416.909 185.569L418.041 183.867C420.307 184.434 423.138 184.434 425.403 183.299M218.705 367.72C218.705 364.883 218.705 362.046 217.006 359.208C213.042 351.264 202.849 347.859 194.355 351.831C191.523 353.534 189.258 355.804 187.559 358.073L167.739 356.939C167.739 356.939 167.739 355.236 167.172 354.669C166.04 352.399 163.775 350.697 161.509 349.562V338.78C166.606 336.51 168.871 330.268 166.606 325.161C164.341 320.054 158.112 317.785 153.015 320.622C152.449 320.622 151.316 321.757 150.75 322.324L128.098 304.166C132.062 299.059 133.195 292.249 129.797 286.007C127.532 281.468 123.568 278.631 118.471 277.496L129.797 237.774C132.062 237.774 134.894 237.774 137.159 237.774C142.255 235.505 144.521 229.263 142.255 224.156C140.556 220.751 137.159 218.481 134.327 218.481L132.062 203.728L146.219 192.946C150.75 200.323 160.377 203.16 168.305 199.188C176.799 195.216 179.631 185.002 175.667 176.49C174.534 174.22 173.402 172.518 171.703 171.383L194.355 150.387L202.849 153.792C202.849 154.927 202.849 156.629 203.982 157.764C206.247 162.871 212.476 165.141 217.573 162.871C222.669 160.601 224.935 154.36 222.669 149.253C222.103 148.118 220.97 146.983 220.404 145.848L228.332 129.392C230.597 129.959 233.429 130.527 235.694 129.392C239.658 128.257 243.056 125.42 244.189 122.015L281.564 146.415C279.865 150.955 279.865 155.494 281.564 160.034C285.528 167.978 295.721 171.383 304.216 167.411C308.18 165.709 310.445 162.304 312.144 158.899L346.688 162.871L353.484 191.811C348.387 193.513 344.989 198.62 344.989 203.728C344.989 208.835 350.652 216.779 358.014 216.779C365.376 216.779 363.677 215.644 365.942 213.942L384.064 228.128L375.569 240.612C373.304 239.477 370.472 239.477 367.641 240.612C360.845 242.314 356.315 249.691 358.014 256.5C359.147 262.175 364.243 266.147 369.906 266.147L380.1 294.519C372.738 301.329 367.075 306.436 363.111 310.408C358.58 308.138 352.917 308.138 348.387 310.408C340.459 314.38 337.061 324.594 341.025 333.106C342.158 335.943 344.423 338.213 347.254 339.915L342.724 355.236C340.459 355.236 338.194 355.236 335.362 355.236C331.964 356.939 329.699 360.343 329.699 363.748L288.36 366.585V365.45C286.661 358.641 279.299 354.101 272.503 355.804C265.708 357.506 261.177 364.883 262.876 371.692V372.827L242.49 381.906L217.006 368.855L218.139 367.72H218.705ZM240.225 382.474L209.645 396.092L207.379 383.041C207.946 383.041 209.078 383.041 209.645 381.906C214.175 379.636 217.006 375.664 218.139 371.125L240.225 382.474ZM186.993 374.529C186.993 375.664 188.125 376.232 188.692 377.367L181.33 388.716L164.907 366.585C166.606 364.883 167.739 362.613 167.739 360.343H185.86C184.161 365.45 184.728 369.99 186.426 374.529M190.957 379.636C194.355 383.041 199.451 384.176 203.982 383.609L206.813 397.227L192.089 403.469L183.029 391.553C183.029 391.553 190.957 379.636 190.391 379.636H190.957ZM83.9269 192.379L104.314 189.541C106.012 192.946 109.977 195.216 113.941 194.648V213.374C113.374 213.374 83.9269 197.486 83.9269 197.486V192.946M131.496 217.346C130.929 217.346 129.797 217.346 129.231 217.914C128.098 217.914 127.532 219.049 126.399 219.616L116.772 214.509L129.797 204.295L131.496 216.779V217.346ZM129.797 185.569L144.521 183.299C144.521 185.569 144.521 187.272 145.653 188.974L132.062 199.188C132.062 199.188 129.797 185.002 130.363 185.002H129.797V185.569ZM124.134 222.453C123.001 224.156 123.001 225.858 123.001 228.128L115.073 230.965V217.914L124.134 222.453ZM123.568 230.965V232.1C124.134 233.802 125.833 234.937 126.965 236.072L115.639 276.928H113.374L115.073 234.37L123.568 230.965ZM79.9629 248.556L112.242 236.072L110.543 278.063C109.977 278.063 108.844 278.063 107.711 279.198C105.446 280.333 103.747 282.035 102.615 283.738L78.264 263.877C81.0954 259.337 81.6617 254.23 79.3966 249.123M78.264 245.719V244.584L113.374 217.914V232.667C112.808 232.667 78.8303 245.719 78.8303 245.719H78.264ZM100.916 284.873C98.6506 289.412 98.0843 295.087 100.916 300.761C102.615 303.598 104.88 306.436 107.711 307.571L105.446 316.65L74.8662 267.282C74.8662 267.282 76.5651 266.147 77.1314 265.012L101.482 284.873H100.916ZM110.543 309.273C113.374 310.408 116.206 310.408 119.604 309.273L151.316 352.399C150.184 353.534 149.051 355.236 148.485 356.939H129.797L107.711 320.622L111.109 309.273H110.543ZM122.435 308.138H123.568C124.7 308.138 125.833 307.003 126.965 305.868L149.617 324.027C147.918 326.864 147.352 330.836 149.051 333.673C150.75 337.645 154.714 339.348 158.678 339.348V348.994C157.545 348.994 155.846 348.994 154.148 350.129L123.001 308.138H122.435ZM133.195 120.88L164.907 119.178C164.907 119.745 164.907 120.313 165.473 120.88C166.606 123.717 168.871 125.42 171.136 125.987L168.871 136.769L133.195 123.15V120.88ZM171.136 140.741L191.523 148.685L169.438 169.113C168.305 168.546 166.606 167.978 165.473 167.411L171.703 140.741H171.136ZM193.788 145.848L171.703 137.336L173.968 125.987C175.667 125.987 177.366 125.987 178.498 124.852C181.896 123.15 183.595 120.313 184.161 116.908L218.705 114.638V117.475C218.705 118.61 219.272 119.178 219.838 119.745L193.222 144.713V145.848H193.788ZM222.103 123.717C222.669 124.852 223.802 125.42 224.935 126.555L217.006 143.011C214.175 141.876 211.343 141.876 208.512 143.011C205.68 144.145 203.982 146.983 202.849 149.82L196.62 147.55L222.103 124.285V123.717ZM354.05 115.773L340.459 124.285L337.061 110.099H353.484C353.484 111.233 353.484 113.503 353.484 115.773M312.144 145.28L338.194 128.824L345.555 158.332L312.71 154.36C312.71 151.522 312.71 148.118 311.578 144.713M337.627 125.987L311.011 142.443C306.481 135.634 297.987 132.797 290.059 136.201L279.865 112.936L333.663 110.099L337.627 125.987ZM287.793 137.336C286.094 138.471 284.396 140.173 283.263 142.443L245.321 117.475V114.638L277.034 112.936L287.793 137.336ZM244.755 111.801C244.755 110.666 244.755 110.099 243.622 108.964L271.371 99.8845L275.901 109.531L244.755 111.233V111.801ZM410.679 178.192L394.823 185.569L391.425 174.22C393.124 173.085 394.257 171.383 394.823 169.681L410.679 172.518V177.625M371.039 199.755L393.124 190.109L398.221 207.7L386.329 225.291L368.774 211.104C370.473 208.835 371.605 205.997 371.605 203.16V199.755M388.028 229.83L406.715 244.584L383.497 247.421C383.497 245.151 381.798 242.881 379.533 241.747L387.461 229.83H388.028ZM389.727 226.993L399.92 211.672L408.981 242.314L389.727 226.993ZM395.956 188.406L412.945 181.03C412.945 182.164 414.644 182.732 415.21 183.299L414.077 184.434L400.486 204.295L395.956 188.406ZM391.992 186.704L369.906 196.918C368.207 193.513 365.376 191.244 361.978 190.109L365.376 164.006L375.569 166.276C375.569 167.978 375.569 169.113 376.702 170.816C378.967 175.355 384.63 177.625 389.16 175.923L392.558 187.272L391.992 186.704ZM358.58 189.541H356.881L350.086 161.736L362.544 163.439L359.147 189.541H358.58ZM373.87 264.444H375.003C375.003 264.444 376.135 264.444 377.268 264.444L394.823 281.468C390.859 285.44 386.895 288.845 383.497 291.682L373.87 265.012V264.444ZM388.594 314.947L371.039 316.082C369.906 313.812 368.207 312.11 366.508 310.975C371.039 307.003 376.135 301.896 382.365 296.222L389.16 314.947H388.594ZM358.014 351.831L348.953 356.939C348.953 355.804 347.254 355.236 346.122 354.101L350.086 338.78C351.785 338.78 354.05 339.915 355.749 339.915L357.448 351.264L358.014 351.831ZM265.142 374.529L255.514 387.013L247.02 382.474L265.142 374.529ZM267.407 376.799C270.804 379.636 274.769 381.339 279.299 380.204C284.962 379.069 288.36 373.962 288.926 368.855L333.097 388.148L300.252 401.767C297.42 397.795 291.757 396.092 287.227 398.362C285.528 398.362 284.396 400.065 283.263 401.767L257.78 388.716L266.84 377.367H267.407V376.799ZM295.155 367.72L330.832 365.45C330.832 365.45 330.832 367.153 330.832 367.72C331.964 370.557 334.796 372.26 337.061 373.395L333.663 385.878L294.023 368.287H294.589L295.155 367.72ZM341.025 373.395C342.158 373.395 343.857 373.394 344.989 372.26C349.52 369.99 351.785 364.315 350.086 359.776L358.014 355.236L361.412 376.232L337.061 386.446L340.459 373.395H341.025ZM359.147 340.483C360.845 340.483 362.544 340.483 364.243 338.78C371.605 334.808 375.003 326.296 372.738 318.919L390.293 317.785L394.823 331.403L360.845 350.697L359.147 340.483ZM392.558 317.785L412.945 316.65C412.945 317.785 412.945 318.919 412.945 320.054L395.956 329.701L391.425 317.785H391.992H392.558ZM412.945 313.245L391.425 314.38L384.064 293.384C388.028 289.412 391.992 286.008 396.522 282.035L418.041 302.463C415.21 305.301 413.511 308.705 413.511 312.678M378.967 261.607C382.365 258.77 384.064 254.798 384.064 250.826L410.113 247.421L414.644 261.607C412.945 263.31 411.246 264.444 409.547 266.147C405.017 270.686 400.486 274.659 396.522 278.631L379.533 262.175H378.967V261.607ZM413.511 246.854L424.837 245.151C424.837 246.854 426.536 248.556 427.668 249.691C424.837 252.528 421.439 255.365 417.475 258.77L413.511 246.286V246.854ZM377.268 125.987C380.1 124.852 382.365 122.582 384.064 119.745C397.088 132.797 408.414 148.118 417.475 164.574H416.342C414.077 165.709 412.378 167.411 411.812 169.113L395.956 166.276C395.956 164.574 395.956 162.871 394.823 161.169C393.124 157.764 389.727 155.494 386.329 155.494L377.268 125.987ZM369.906 127.689H374.437L382.931 156.629C382.931 156.629 381.798 156.629 381.232 157.197C378.401 158.332 376.702 160.601 376.135 163.439L365.942 161.169L370.473 127.689H369.906ZM366.508 127.122L361.978 160.601L348.387 158.899L340.459 127.122L354.616 118.61C356.881 123.15 361.412 126.555 365.942 127.122M333.663 84.5634C342.158 88.5356 350.652 93.6426 358.58 99.3171C356.315 101.587 355.183 103.857 354.05 106.694L336.495 107.829L331.398 87.9681C332.531 87.9681 333.097 86.2658 333.663 85.6983M317.807 85.6983C320.638 88.5356 324.603 89.6705 328.567 88.5356L333.097 107.261L278.733 110.099L274.202 99.3171L317.807 85.6983ZM271.371 66.9725C286.661 68.6749 300.818 71.5121 314.976 76.6191C314.976 78.8889 314.976 81.1587 314.976 82.8611L272.503 96.4798L265.142 79.4564C269.106 76.0517 270.804 72.0796 270.804 66.9725M249.852 82.2936C253.816 83.4285 258.346 83.4285 262.31 82.2936H263.443L270.238 98.7496L241.357 107.829C241.357 107.261 239.658 106.694 239.092 106.126L249.852 83.996V82.8611V82.2936ZM193.788 75.4843C207.946 70.9447 223.236 67.54 238.526 66.4051C238.526 68.6749 238.526 71.5121 240.225 73.7819C241.923 77.1866 244.189 79.4564 247.02 81.1587L236.26 103.289C233.995 102.722 231.164 102.154 228.899 103.289C227.766 103.289 226.067 104.424 224.935 104.992L192.656 83.996C193.788 81.7262 193.788 78.8889 193.222 76.0517M188.692 87.9681C189.824 87.9681 190.957 86.8332 191.523 85.6983L223.236 106.126C221.537 107.829 220.404 110.099 219.838 112.368L184.728 114.638C184.728 113.503 184.728 112.368 184.161 111.801C183.029 109.531 181.33 107.829 179.065 106.694L183.029 88.5356C184.728 88.5356 186.993 88.5356 188.692 87.4007M167.172 86.8332C169.438 85.6983 172.269 84.5634 174.534 83.4285C175.667 85.6983 177.366 87.4007 179.631 88.5356L175.667 106.694C173.968 106.694 171.703 106.694 170.004 107.829C166.606 109.531 164.341 112.936 164.341 116.908L132.062 118.61C131.496 116.908 130.363 115.206 128.664 113.503C139.99 103.289 153.015 94.21 167.172 86.8332ZM132.628 125.987L168.305 139.606L162.076 166.843C159.811 166.843 156.979 166.843 154.714 167.978L128.664 132.229C130.363 130.527 132.062 128.257 132.628 125.987ZM125.833 134.499L150.75 170.248C147.352 172.518 145.087 176.49 144.521 180.462L129.231 182.732L122.435 136.201C123.568 136.201 124.7 135.634 125.833 135.066M119.037 135.634L125.833 182.732H123.001C123.001 182.164 123.001 181.03 121.869 179.895C120.736 177.625 119.037 175.923 116.772 175.355L118.471 136.201L119.037 135.634ZM116.772 194.081H117.338C120.17 192.379 122.435 190.109 123.001 186.704H126.399C126.399 186.137 128.664 202.025 128.664 202.025L115.639 211.672V194.648H116.772V194.081ZM110.543 131.662C112.242 133.364 113.941 134.499 116.206 135.066L114.507 174.22C112.808 174.22 110.543 174.22 108.844 175.355C104.314 177.625 102.615 182.164 103.181 186.704L82.7943 189.541C81.6617 187.839 80.5292 186.704 78.8303 185.569C86.1921 165.708 96.9517 147.55 110.543 131.662ZM72.601 204.862C74.2999 204.862 76.5651 204.862 78.264 203.728C79.9629 202.593 81.6617 201.458 82.7943 199.755L111.109 215.076L75.9988 241.747C73.7336 239.477 70.3358 237.774 67.5044 237.774C68.6369 226.425 70.3358 215.644 73.1673 204.862M94.6865 343.887C92.9877 343.887 91.8551 343.887 90.7225 343.887C78.264 321.757 69.7695 296.789 67.5044 270.119C69.2032 270.119 70.3358 270.119 72.0347 268.984L103.747 320.622L96.9517 344.455H94.1202M100.35 345.022L106.012 324.027L125.833 355.804H107.711C107.145 350.697 104.314 347.292 100.35 345.59M158.678 409.144C156.979 409.144 155.846 410.846 155.28 411.981C135.46 400.065 118.471 384.176 104.314 365.45C106.012 363.18 107.711 360.911 107.711 357.506L128.098 358.641L159.244 408.576M161.509 408.009L130.929 358.641H147.352C147.352 360.911 147.352 362.046 148.485 363.748C150.75 368.287 155.28 370.557 159.811 369.422L162.642 408.009H161.509ZM168.305 409.711C167.739 409.711 167.172 409.711 166.04 408.576L163.208 368.855L179.631 391.553L168.305 409.711ZM170.57 411.414L181.896 394.39L189.824 404.604L171.703 412.548C171.703 412.548 171.136 412.548 171.136 411.414M204.548 433.544C193.222 430.707 183.029 426.735 172.835 421.628C173.402 419.358 173.402 417.088 172.835 415.386L190.957 407.441L206.813 429.004C205.68 430.139 204.548 431.842 203.982 433.544M209.078 426.735L193.788 405.739L206.813 400.065L211.343 425.032C210.211 425.032 209.645 426.167 208.512 426.735M217.006 423.897H214.741L209.645 398.362L243.056 383.609L253.249 388.716L223.802 425.6C221.537 424.465 219.272 423.897 217.006 423.897ZM228.899 431.274C228.332 430.139 227.766 429.004 226.633 427.87L256.647 390.418L282.697 404.037C282.697 405.739 282.697 407.441 282.697 409.144L229.465 431.274H228.899ZM309.879 430.707C291.757 436.381 272.503 439.786 252.683 439.786C232.863 439.786 237.393 439.786 230.031 438.651V434.679L283.263 412.548C286.094 417.088 291.757 419.358 296.854 417.088C298.553 417.088 299.686 415.386 300.818 413.683L312.144 419.358C310.445 422.762 309.879 427.302 311.011 431.274M318.94 411.414C316.108 412.548 314.409 414.251 312.71 416.521L301.384 410.846C301.384 408.576 301.384 406.306 301.384 404.604L332.531 391.553L327.434 409.711C324.603 409.711 321.205 409.711 318.373 411.414M340.459 417.655C338.194 413.683 334.796 411.414 330.832 410.279L336.495 389.851L354.05 397.227V400.632C354.05 403.469 355.183 406.306 356.315 408.009C351.218 411.414 345.555 414.818 339.893 417.655M355.749 394.39L341.025 387.581L362.544 378.502L364.243 387.581C360.845 388.716 358.014 390.985 356.315 393.823M377.268 392.12C375.003 389.283 371.605 387.581 367.641 387.581L365.942 377.934L396.522 365.45C396.522 365.45 396.522 366.585 396.522 367.153C396.522 368.287 397.655 368.855 398.221 369.99C391.992 377.934 384.63 385.311 377.268 392.12ZM401.052 353.534C397.655 355.236 395.39 358.641 395.39 362.046L364.81 374.529L361.412 352.966L395.956 333.673L402.751 352.966H401.619M409.547 353.534C408.414 353.534 406.715 352.399 405.017 352.399L397.655 332.538L414.644 322.892C416.342 326.296 419.174 328.566 422.005 330.268C418.041 338.78 414.077 346.157 408.981 354.101M422.572 299.626C421.439 299.626 420.873 300.761 420.307 300.761L398.787 279.766C403.318 275.793 407.848 271.254 411.812 267.849C412.945 266.714 414.644 265.579 415.776 264.444L425.969 298.491C424.837 298.491 423.704 298.491 422.572 299.626ZM428.801 298.491L418.041 262.742C422.572 258.203 426.536 254.798 429.367 252.528C432.199 254.23 435.596 255.365 438.994 254.798C438.994 270.119 436.729 284.873 433.331 299.626C431.632 299.626 430.5 299.626 428.801 299.626M259.479 306.436C248.719 306.436 239.658 305.301 231.164 301.896C223.236 299.059 217.006 295.087 212.476 289.412C207.946 283.738 205.68 278.063 205.68 271.254H240.225C240.225 272.956 241.357 274.659 243.056 276.361C244.755 277.496 247.02 278.631 249.852 279.766C252.683 280.9 256.081 280.9 260.045 280.9C264.009 280.9 269.672 280.9 272.503 279.198C275.335 278.063 277.034 276.361 277.034 274.091C277.034 271.821 275.901 271.254 274.769 270.119C273.07 268.984 269.672 268.417 264.575 267.849L248.153 266.714C233.429 265.579 222.669 262.742 215.874 257.068C209.078 251.393 206.247 244.584 206.247 236.072C206.247 227.56 208.512 222.453 212.476 217.914C216.44 212.807 222.669 209.402 230.031 206.565C237.393 203.728 246.454 203.16 256.647 203.16C266.84 203.16 275.335 204.295 283.263 207.132C290.625 209.969 296.854 213.942 301.384 218.481C305.915 223.021 308.18 229.263 308.746 236.072H274.202C274.202 234.37 273.07 233.235 271.371 232.1C269.672 230.965 267.973 229.83 265.142 229.263C262.31 228.695 259.479 228.128 255.514 228.128C251.55 228.128 247.02 228.128 244.189 229.83C241.357 230.965 240.225 232.1 240.225 234.37C240.225 236.64 240.225 237.207 242.49 238.342C244.189 239.477 247.02 240.044 252.117 240.612L270.238 241.747C279.865 241.747 287.793 244.016 293.456 246.286C299.119 248.556 303.65 251.393 306.481 255.365C309.313 259.337 310.445 263.877 310.445 270.119C310.445 276.361 308.18 283.738 304.216 289.412C299.686 295.087 294.023 299.059 286.094 301.896C278.166 304.733 269.106 306.436 258.912 306.436"></path>
</svg>
